<svg width="92" height="82" viewBox="0 0 92 82" fill="none" xmlns="http://www.w3.org/2000/svg">
<path d="M46 0C34.8849 0 25.875 9.03442 25.875 20.1797C25.875 29.1901 39.0281 45.6125 44.0674 51.5735C45.088 52.7811 46.9136 52.7811 47.9326 51.5735C52.9719 45.6125 66.125 29.1901 66.125 20.1797C66.125 9.03442 57.1151 0 46 0ZM46 26.9062C42.2944 26.9062 39.2917 23.8953 39.2917 20.1797C39.2917 16.4641 42.2944 13.4531 46 13.4531C49.7056 13.4531 52.7083 16.4641 52.7083 20.1797C52.7083 23.8953 49.7056 26.9062 46 26.9062ZM3.21361 34.5857C2.26515 34.9661 1.45208 35.6227 0.879286 36.4708C0.306489 37.319 0.000227158 38.3197 0 39.344L0 79.4343C0 81.2473 1.82562 82.4869 3.50431 81.8142L25.5556 71.75V34.4208C24.1436 31.8615 22.9888 29.3695 22.1615 26.9863L3.21361 34.5857ZM46 57.6034C43.7527 57.6034 41.6268 56.6136 40.1685 54.8871C37.0284 51.1715 33.6886 46.9402 30.6667 42.6V71.7484L61.3333 81.9984V42.6016C58.3114 46.9402 54.9732 51.1731 51.8315 54.8888C50.3732 56.6136 48.2473 57.6034 46 57.6034ZM88.4957 25.8108L66.4444 35.875V82L88.7864 73.0393C89.735 72.659 90.5482 72.0025 91.121 71.1544C91.6938 70.3062 92 69.3054 92 68.281V28.1907C92 26.3777 90.1744 25.1381 88.4957 25.8108Z" fill="#fff"/>
</svg>
